<svg xmlns="http://www.w3.org/2000/svg" viewBox="0 0 32 32">
  <defs>
    <linearGradient id="flame" x1="16" y1="2" x2="16" y2="30" gradientUnits="userSpaceOnUse">
      <stop offset="0" stop-color="#ff9800"/>
      <stop offset="0.45" stop-color="#f44336"/>
      <stop offset="1" stop-color="#b71c1c"/>
    </linearGradient>
  </defs>
  <path fill="url(#flame)" d="M17.6 2.2c.4 3.5-1.2 5.6-3.1 7.6-2 2.1-4.4 4.4-4.4 8.5 0 4.4 3.1 7.9 6.9 7.9-1.4-.7-2.3-2.1-2.3-3.8 0-2.4 1.8-3.6 2.9-5.4.5 1.1 1.6 1.8 1.6 3.4 2.1-1.5 2.7-4 2.2-6.4 3 2.1 4.6 5.3 4.6 8.4 0 5.4-4.5 9.4-9.9 9.4S6 27.6 6 21.9c0-5 2.6-8.6 5.2-11.7C13.9 6.9 17.1 4.8 17.6 2.2z"/>
</svg>
